<?xml version="1.0" encoding="UTF-8" standalone="no"?>
<svg
   xmlns:sketch="http://www.bohemiancoding.com/sketch/ns"
   xmlns:dc="http://purl.org/dc/elements/1.1/"
   xmlns:cc="http://creativecommons.org/ns#"
   xmlns:rdf="http://www.w3.org/1999/02/22-rdf-syntax-ns#"
   xmlns:svg="http://www.w3.org/2000/svg"
   xmlns="http://www.w3.org/2000/svg"
   xmlns:sodipodi="http://sodipodi.sourceforge.net/DTD/sodipodi-0.dtd"
   xmlns:inkscape="http://www.inkscape.org/namespaces/inkscape"
   width="25px"
   height="25px"
   viewBox="0 0 25 25"
   version="1.1"
   id="svg3082"
   inkscape:version="0.48.3.1 r9886"
   sodipodi:docname="dots.svg">
  <metadata
     id="metadata3142">
    <rdf:RDF>
      <cc:Work
         rdf:about="">
        <dc:format>image/svg+xml</dc:format>
        <dc:type
           rdf:resource="http://purl.org/dc/dcmitype/StillImage" />
        <dc:title>dots</dc:title>
      </cc:Work>
    </rdf:RDF>
  </metadata>
  <sodipodi:namedview
     pagecolor="#ffffff"
     bordercolor="#666666"
     borderopacity="1"
     objecttolerance="10"
     gridtolerance="10"
     guidetolerance="10"
     inkscape:pageopacity="0"
     inkscape:pageshadow="2"
     inkscape:window-width="1280"
     inkscape:window-height="700"
     id="namedview3140"
     showgrid="false"
     inkscape:zoom="19.0275"
     inkscape:cx="2.5407305"
     inkscape:cy="12.5"
     inkscape:window-x="0"
     inkscape:window-y="31"
     inkscape:window-maximized="1"
     inkscape:current-layer="Page-1" />
  <!-- Generator: Sketch 3.2.2 (9983) - http://www.bohemiancoding.com/sketch -->
  <title
     id="title3084">dots</title>
  <desc
     id="desc3086">Created with Sketch.</desc>
  <defs
     id="defs3088" />
  <g
     id="Page-1"
     stroke="none"
     stroke-width="1"
     fill="none"
     fill-rule="evenodd"
     sketch:type="MSPage">
    <g
       id="Artboard-1"
       sketch:type="MSArtboardGroup"
       transform="translate(-140.000000, -154.000000)"
       fill="#D57E00"
       style="fill:#000000;fill-opacity:1">
      <g
         id="dots"
         sketch:type="MSLayerGroup"
         transform="translate(140.000000, 154.000000)"
         style="fill:#000000;fill-opacity:1">
        <g
           id="dot"
           sketch:type="MSShapeGroup"
           style="fill:#000000;fill-opacity:1">
          <g
             id="g3094"
             style="fill:#000000;fill-opacity:1">
            <circle
               cx="2.5"
               cy="2.5"
               r="2.5"
               id="circle3096"
               d="M 5,2.5 C 5,3.8807119 3.8807119,5 2.5,5 1.1192881,5 0,3.8807119 0,2.5 0,1.1192881 1.1192881,0 2.5,0 3.8807119,0 5,1.1192881 5,2.5 z"
               style="fill:#000000;fill-opacity:1" />
          </g>
        </g>
        <g
           id="g3098"
           transform="translate(0.000000, 20.000000)"
           sketch:type="MSShapeGroup"
           style="fill:#000000;fill-opacity:1">
          <g
             id="g3100"
             style="fill:#000000;fill-opacity:1">
            <circle
               cx="2.5"
               cy="2.5"
               r="2.5"
               id="circle3102"
               d="M 5,2.5 C 5,3.8807119 3.8807119,5 2.5,5 1.1192881,5 0,3.8807119 0,2.5 0,1.1192881 1.1192881,0 2.5,0 3.8807119,0 5,1.1192881 5,2.5 z"
               style="fill:#000000;fill-opacity:1" />
          </g>
        </g>
        <g
           id="g3104"
           transform="translate(0.000000, 10.000000)"
           sketch:type="MSShapeGroup"
           style="fill:#000000;fill-opacity:1">
          <g
             id="g3106"
             style="fill:#000000;fill-opacity:1">
            <circle
               cx="2.5"
               cy="2.5"
               r="2.5"
               id="circle3108"
               d="M 5,2.5 C 5,3.8807119 3.8807119,5 2.5,5 1.1192881,5 0,3.8807119 0,2.5 0,1.1192881 1.1192881,0 2.5,0 3.8807119,0 5,1.1192881 5,2.5 z"
               style="fill:#000000;fill-opacity:1" />
          </g>
        </g>
        <g
           id="g3110"
           transform="translate(10.000000, 0.000000)"
           sketch:type="MSShapeGroup"
           style="fill:#000000;fill-opacity:1">
          <g
             id="g3112"
             style="fill:#000000;fill-opacity:1">
            <circle
               cx="2.5"
               cy="2.5"
               r="2.5"
               id="circle3114"
               d="M 5,2.5 C 5,3.8807119 3.8807119,5 2.5,5 1.1192881,5 0,3.8807119 0,2.5 0,1.1192881 1.1192881,0 2.5,0 3.8807119,0 5,1.1192881 5,2.5 z"
               style="fill:#000000;fill-opacity:1" />
          </g>
        </g>
        <g
           id="g3116"
           transform="translate(10.000000, 20.000000)"
           sketch:type="MSShapeGroup"
           style="fill:#000000;fill-opacity:1">
          <g
             id="g3118"
             style="fill:#000000;fill-opacity:1">
            <circle
               cx="2.5"
               cy="2.5"
               r="2.5"
               id="circle3120"
               d="M 5,2.5 C 5,3.8807119 3.8807119,5 2.5,5 1.1192881,5 0,3.8807119 0,2.5 0,1.1192881 1.1192881,0 2.5,0 3.8807119,0 5,1.1192881 5,2.5 z"
               style="fill:#000000;fill-opacity:1" />
          </g>
        </g>
        <g
           id="g3122"
           transform="translate(20.000000, 0.000000)"
           sketch:type="MSShapeGroup"
           style="fill:#000000;fill-opacity:1">
          <g
             id="g3124"
             style="fill:#000000;fill-opacity:1">
            <circle
               cx="2.5"
               cy="2.5"
               r="2.5"
               id="circle3126"
               d="M 5,2.5 C 5,3.8807119 3.8807119,5 2.5,5 1.1192881,5 0,3.8807119 0,2.5 0,1.1192881 1.1192881,0 2.5,0 3.8807119,0 5,1.1192881 5,2.5 z"
               style="fill:#000000;fill-opacity:1" />
          </g>
        </g>
        <g
           id="g3128"
           transform="translate(20.000000, 20.000000)"
           sketch:type="MSShapeGroup"
           style="fill:#000000;fill-opacity:1">
          <g
             id="g3130"
             style="fill:#000000;fill-opacity:1">
            <circle
               cx="2.5"
               cy="2.5"
               r="2.5"
               id="circle3132"
               d="M 5,2.5 C 5,3.8807119 3.8807119,5 2.5,5 1.1192881,5 0,3.8807119 0,2.5 0,1.1192881 1.1192881,0 2.5,0 3.8807119,0 5,1.1192881 5,2.5 z"
               style="fill:#000000;fill-opacity:1" />
          </g>
        </g>
        <g
           id="g3134"
           transform="translate(20.000000, 10.000000)"
           sketch:type="MSShapeGroup"
           style="fill:#000000;fill-opacity:1">
          <g
             id="g3136"
             style="fill:#000000;fill-opacity:1">
            <circle
               cx="2.5"
               cy="2.5"
               r="2.5"
               id="circle3138"
               d="M 5,2.5 C 5,3.8807119 3.8807119,5 2.5,5 1.1192881,5 0,3.8807119 0,2.5 0,1.1192881 1.1192881,0 2.5,0 3.8807119,0 5,1.1192881 5,2.5 z"
               style="fill:#000000;fill-opacity:1" />
          </g>
        </g>
      </g>
    </g>
  </g>
</svg>
